<svg width="219" height="46" viewBox="0 0 219 46" fill="none" xmlns="http://www.w3.org/2000/svg">
<path d="M57.7398 6.51219H60.8598V11.7122H66.3798V6.51219H69.4998V19.4922H66.3798V13.9322H60.8598V19.4922H57.7398V6.51219ZM74.9106 19.6922C74.004 19.6922 73.324 19.6122 72.8706 19.4522C72.4306 19.2789 72.1173 18.9789 71.9306 18.5522C71.7573 18.1122 71.6706 17.4589 71.6706 16.5922C71.6706 15.8189 71.764 15.2122 71.9506 14.7722C72.1506 14.3322 72.464 14.0189 72.8906 13.8322C73.3306 13.6322 73.9306 13.5322 74.6906 13.5322H77.9706V12.8722C77.9706 12.4589 77.9106 12.1522 77.7906 11.9522C77.684 11.7522 77.4773 11.6122 77.1706 11.5322C76.8773 11.4522 76.4306 11.4122 75.8306 11.4122C75.004 11.4122 73.8706 11.4922 72.4306 11.6522V9.81219C73.484 9.67885 74.7173 9.61219 76.1306 9.61219C77.3706 9.61219 78.324 9.70552 78.9906 9.89219C79.6706 10.0789 80.1573 10.3989 80.4506 10.8522C80.744 11.3055 80.8906 11.9655 80.8906 12.8322V19.4922H78.0306V18.6122C77.804 18.9989 77.4973 19.2722 77.1106 19.4322C76.724 19.6055 75.9906 19.6922 74.9106 19.6922ZM76.0506 17.8722C76.6373 17.8722 77.0573 17.8522 77.3106 17.8122C77.4973 17.7855 77.624 17.7455 77.6906 17.6922C77.7706 17.6389 77.8373 17.5522 77.8906 17.4322C77.944 17.3389 77.9706 17.1989 77.9706 17.0122V15.1322H75.9706C75.5173 15.1322 75.1973 15.1655 75.0106 15.2322C74.824 15.2855 74.6973 15.4055 74.6306 15.5922C74.564 15.7655 74.5306 16.0789 74.5306 16.5322C74.5306 16.9722 74.564 17.2789 74.6306 17.4522C74.6973 17.6255 74.824 17.7389 75.0106 17.7922C75.2106 17.8455 75.5573 17.8722 76.0506 17.8722ZM86.3197 19.6922C85.133 19.6922 83.9397 19.5789 82.7397 19.3522V17.4322C83.5264 17.6055 84.1664 17.7255 84.6597 17.7922C85.153 17.8455 85.6397 17.8722 86.1197 17.8722C86.7464 17.8722 87.2197 17.8455 87.5397 17.7922C87.8597 17.7389 88.0864 17.6389 88.2197 17.4922C88.353 17.3322 88.4197 17.1055 88.4197 16.8122V16.4122C88.4197 16.0255 88.2664 15.7655 87.9597 15.6322C87.6664 15.4855 87.133 15.4122 86.3597 15.4122H84.3997V13.5922H86.3597C86.973 13.5922 87.3797 13.5122 87.5797 13.3522C87.793 13.1922 87.8997 12.9322 87.8997 12.5722V12.3922C87.8997 12.1255 87.853 11.9255 87.7597 11.7922C87.6797 11.6589 87.513 11.5655 87.2597 11.5122C87.0197 11.4455 86.6397 11.4122 86.1197 11.4122C85.6264 11.4122 85.1597 11.4522 84.7197 11.5322C84.293 11.5989 83.7197 11.7189 82.9997 11.8922V9.97219C84.3064 9.73219 85.5597 9.61219 86.7597 9.61219C87.8797 9.61219 88.7264 9.67885 89.2997 9.81219C89.873 9.94552 90.2664 10.1722 90.4797 10.4922C90.7064 10.7989 90.8197 11.2522 90.8197 11.8522V12.6922C90.8197 13.0922 90.7064 13.4255 90.4797 13.6922C90.253 13.9589 89.953 14.1389 89.5797 14.2322V14.3322C90.1397 14.4522 90.573 14.6789 90.8797 15.0122C91.1864 15.3322 91.3397 15.7055 91.3397 16.1322V16.9522C91.3397 17.6589 91.1597 18.2122 90.7997 18.6122C90.453 19.0122 89.913 19.2922 89.1797 19.4522C88.4597 19.6122 87.5064 19.6922 86.3197 19.6922ZM93.4597 9.81219H98.8197C99.873 9.81219 100.666 9.89885 101.2 10.0722C101.733 10.2455 102.08 10.4989 102.24 10.8322C102.413 11.1522 102.5 11.5989 102.5 12.1722V12.5122C102.5 13.0189 102.353 13.3989 102.06 13.6522C101.78 13.9055 101.326 14.0989 100.7 14.2322V14.3122C101.433 14.4322 102 14.6655 102.4 15.0122C102.8 15.3589 103 15.8055 103 16.3522V16.9322C103 17.8122 102.673 18.4589 102.02 18.8722C101.366 19.2855 100.293 19.4922 98.7997 19.4922H93.4597V9.81219ZM97.7997 13.6322C98.3197 13.6322 98.7064 13.5989 98.9597 13.5322C99.213 13.4655 99.3864 13.3655 99.4797 13.2322C99.573 13.0855 99.6197 12.8722 99.6197 12.5922V12.3522C99.6197 12.0989 99.4997 11.9055 99.2597 11.7722C99.033 11.6389 98.5264 11.5722 97.7397 11.5722H96.3397V13.6322H97.7997ZM97.8597 17.7322C98.673 17.7322 99.2464 17.6455 99.5797 17.4722C99.913 17.2989 100.08 17.0255 100.08 16.6522V16.2922C100.08 16.0389 100.013 15.8455 99.8797 15.7122C99.7597 15.5789 99.553 15.4855 99.2597 15.4322C98.9664 15.3789 98.533 15.3522 97.9597 15.3522H96.3397V17.7322H97.8597ZM107.821 19.6922C106.914 19.6922 106.234 19.6122 105.781 19.4522C105.341 19.2789 105.027 18.9789 104.841 18.5522C104.667 18.1122 104.581 17.4589 104.581 16.5922C104.581 15.8189 104.674 15.2122 104.861 14.7722C105.061 14.3322 105.374 14.0189 105.801 13.8322C106.241 13.6322 106.841 13.5322 107.601 13.5322H110.881V12.8722C110.881 12.4589 110.821 12.1522 110.701 11.9522C110.594 11.7522 110.387 11.6122 110.081 11.5322C109.787 11.4522 109.341 11.4122 108.741 11.4122C107.914 11.4122 106.781 11.4922 105.341 11.6522V9.81219C106.394 9.67885 107.627 9.61219 109.041 9.61219C110.281 9.61219 111.234 9.70552 111.901 9.89219C112.581 10.0789 113.067 10.3989 113.361 10.8522C113.654 11.3055 113.801 11.9655 113.801 12.8322V19.4922H110.941V18.6122C110.714 18.9989 110.407 19.2722 110.021 19.4322C109.634 19.6055 108.901 19.6922 107.821 19.6922ZM108.961 17.8722C109.547 17.8722 109.967 17.8522 110.221 17.8122C110.407 17.7855 110.534 17.7455 110.601 17.6922C110.681 17.6389 110.747 17.5522 110.801 17.4322C110.854 17.3389 110.881 17.1989 110.881 17.0122V15.1322H108.881C108.427 15.1322 108.107 15.1655 107.921 15.2322C107.734 15.2855 107.607 15.4055 107.541 15.5922C107.474 15.7655 107.441 16.0789 107.441 16.5322C107.441 16.9722 107.474 17.2789 107.541 17.4522C107.607 17.6255 107.734 17.7389 107.921 17.7922C108.121 17.8455 108.467 17.8722 108.961 17.8722ZM116.37 9.81219H119.29V13.5322H122.95V9.81219H125.87V19.4922H122.95V15.4522H119.29V19.4922H116.37V9.81219ZM128.421 9.81219H131.341V16.1322L135.161 9.81219H138.081V19.4922H135.161V12.9922L131.341 19.4922H128.421V9.81219ZM145.507 19.6922C142.081 19.6922 140.367 18.6455 140.367 16.5522V13.0722C140.367 11.8589 140.754 10.9789 141.527 10.4322C142.314 9.88552 143.521 9.61219 145.147 9.61219C146.681 9.61219 147.801 9.87885 148.507 10.4122C149.227 10.9322 149.587 11.8189 149.587 13.0722V15.4322H143.307V16.3122C143.307 16.8722 143.507 17.2722 143.907 17.5122C144.307 17.7522 145.027 17.8722 146.067 17.8722C147.027 17.8722 148.107 17.7322 149.307 17.4522V19.3122C148.121 19.5655 146.854 19.6922 145.507 19.6922ZM146.807 13.7722V12.3722C146.807 12.0522 146.674 11.8122 146.407 11.6522C146.154 11.4922 145.721 11.4122 145.107 11.4122C144.401 11.4122 143.927 11.4922 143.687 11.6522C143.434 11.8255 143.307 12.0655 143.307 12.3722V13.7722H146.807Z" fill="#0E0E0E"/>
<path d="M65.0249 24.3398H65.9258V35.0039H65.0249V25.8779L58.9531 35.0039H58.0449V24.3398H58.9531V33.4585L65.0249 24.3398ZM74.7107 31.3711H73.4949V35.0039H72.6087V27.0791H73.4949V30.5947H74.6961L77.6038 27.0791H78.7098L75.4578 30.9243L79.0687 35.0039H77.9114L74.7107 31.3711ZM85.5632 35.0039C85.4753 34.7549 85.4191 34.3862 85.3947 33.8979C85.0871 34.2983 84.694 34.6084 84.2155 34.8281C83.7419 35.043 83.239 35.1504 82.7067 35.1504C81.945 35.1504 81.3273 34.938 80.8537 34.5132C80.385 34.0884 80.1506 33.5513 80.1506 32.9019C80.1506 32.1304 80.4704 31.52 81.1101 31.0708C81.7546 30.6216 82.6506 30.397 83.798 30.397H85.3874V29.4961C85.3874 28.9297 85.2116 28.4854 84.8601 28.1631C84.5134 27.8359 84.0056 27.6724 83.3366 27.6724C82.7263 27.6724 82.2209 27.8286 81.8205 28.1411C81.4201 28.4536 81.2199 28.8296 81.2199 29.269L80.341 29.2617C80.341 28.6318 80.634 28.0874 81.2199 27.6284C81.8059 27.1646 82.5261 26.9326 83.3806 26.9326C84.2644 26.9326 84.9602 27.1548 85.468 27.5991C85.9807 28.0386 86.2443 28.6538 86.259 29.4448V33.1948C86.259 33.9614 86.3396 34.5352 86.5007 34.916V35.0039H85.5632ZM82.8093 34.374C83.3952 34.374 83.9177 34.2324 84.3767 33.9492C84.8405 33.666 85.1774 33.2876 85.3874 32.814V31.0708H83.82C82.946 31.0806 82.2624 31.2417 81.7692 31.5542C81.2761 31.8618 81.0295 32.2866 81.0295 32.8286C81.0295 33.2729 81.1931 33.6416 81.5202 33.9346C81.8522 34.2275 82.2819 34.374 82.8093 34.374ZM90.9811 31.3711H89.7652V35.0039H88.879V27.0791H89.7652V30.5947H90.9664L93.8741 27.0791H94.9801L91.7281 30.9243L95.339 35.0039H94.1817L90.9811 31.3711ZM96.1865 30.9243C96.1865 30.1626 96.333 29.4766 96.626 28.8662C96.9238 28.2559 97.3413 27.7822 97.8784 27.4453C98.4204 27.1035 99.0332 26.9326 99.7168 26.9326C100.771 26.9326 101.626 27.3037 102.28 28.0459C102.935 28.7832 103.262 29.7622 103.262 30.9829V31.166C103.262 31.9326 103.113 32.6235 102.815 33.2388C102.522 33.8491 102.107 34.3203 101.57 34.6523C101.033 34.9844 100.42 35.1504 99.7314 35.1504C98.6816 35.1504 97.8271 34.7817 97.168 34.0444C96.5137 33.3022 96.1865 32.3208 96.1865 31.1001V30.9243ZM97.0654 31.166C97.0654 32.1133 97.3096 32.8921 97.7979 33.5024C98.291 34.1079 98.9355 34.4106 99.7314 34.4106C100.522 34.4106 101.162 34.1079 101.65 33.5024C102.144 32.8921 102.39 32.0889 102.39 31.0928V30.9243C102.39 30.3188 102.278 29.7646 102.053 29.2617C101.829 28.7588 101.514 28.3706 101.108 28.0972C100.703 27.8188 100.239 27.6797 99.7168 27.6797C98.9355 27.6797 98.2983 27.9873 97.8052 28.6025C97.312 29.2129 97.0654 30.0137 97.0654 31.0049V31.166ZM110.511 27.0791H111.39V35.0039H110.511V28.4927L106.233 35.0039H105.362V27.0791H106.233V33.5977L110.511 27.0791ZM110.467 24.2227C110.467 24.7842 110.274 25.2383 109.888 25.585C109.507 25.9316 108.995 26.105 108.35 26.105C107.715 26.105 107.203 25.9341 106.812 25.5923C106.426 25.2456 106.233 24.7891 106.233 24.2227H106.98C106.98 24.6279 107.1 24.938 107.339 25.1528C107.583 25.3677 107.92 25.4751 108.35 25.4751C108.78 25.4751 109.114 25.3628 109.353 25.1382C109.598 24.9136 109.72 24.6084 109.72 24.2227H110.467ZM123.925 35.0039H123.046V31.3711H118.776V35.0039H117.897V27.0791H118.776V30.6313H123.046V27.0791H123.925V35.0039ZM131.708 27.0791H132.587V35.0039H131.708V28.4927L127.431 35.0039H126.559V27.0791H127.431V33.5977L131.708 27.0791ZM138.356 27.6064C139.362 27.6064 140.178 27.936 140.803 28.5952C141.428 29.2495 141.74 30.1187 141.74 31.2026V31.3931C141.74 32.1108 141.596 32.7578 141.308 33.334C141.025 33.9053 140.615 34.3521 140.078 34.6743C139.545 34.9917 138.933 35.1504 138.239 35.1504C137.194 35.1504 136.347 34.8037 135.698 34.1104C135.053 33.4121 134.731 32.4819 134.731 31.3198V30.6167C134.731 28.9761 135.043 27.665 135.668 26.6836C136.293 25.7021 137.182 25.1162 138.334 24.9258C139.062 24.8086 139.572 24.6499 139.865 24.4497C140.163 24.2495 140.312 23.9761 140.312 23.6294H141.066C141.066 24.0396 140.981 24.3789 140.81 24.6475C140.639 24.916 140.383 25.1333 140.041 25.2993C139.699 25.4604 139.177 25.5972 138.474 25.7095C137.668 25.8364 137.019 26.1807 136.525 26.7422C136.037 27.2988 135.72 28.0459 135.573 28.9834C135.886 28.5732 136.276 28.2412 136.745 27.9873C137.219 27.7334 137.756 27.6064 138.356 27.6064ZM135.61 31.21V31.3931C135.61 32.2866 135.852 33.0142 136.335 33.5757C136.818 34.1323 137.453 34.4106 138.239 34.4106C139.03 34.4106 139.665 34.1299 140.144 33.5684C140.622 33.002 140.861 32.2598 140.861 31.3418V31.1514C140.861 30.3262 140.617 29.6523 140.129 29.1299C139.646 28.6074 139.011 28.3462 138.225 28.3462C137.438 28.3462 136.806 28.6123 136.328 29.1445C135.849 29.6719 135.61 30.3604 135.61 31.21ZM146.162 33.7441L148.476 27.0791H149.421L146.037 36.3516L145.862 36.7617C145.427 37.7236 144.756 38.2046 143.848 38.2046C143.638 38.2046 143.413 38.1704 143.174 38.1021L143.166 37.377L143.621 37.4209C144.05 37.4209 144.397 37.3135 144.661 37.0986C144.929 36.8887 145.156 36.5249 145.342 36.0073L145.73 34.938L142.742 27.0791H143.701L146.162 33.7441ZM150.415 34.2642L150.804 33.7588C151.419 32.9238 151.773 31.7031 151.866 30.0967L152.005 27.0791H156.685V34.2642H157.505V37.333H156.634V35.0039H150.679V37.333H149.837L149.844 34.2642H150.415ZM151.426 34.2642H155.806V27.8994H152.84L152.744 29.9575C152.657 31.8472 152.217 33.2827 151.426 34.2642ZM160.389 29.9575H162.674C163.26 29.9575 163.773 30.0649 164.212 30.2798C164.656 30.4897 164.991 30.7827 165.216 31.1587C165.445 31.5347 165.56 31.9717 165.56 32.4697C165.56 33.2363 165.296 33.8516 164.769 34.3154C164.246 34.7744 163.538 35.0039 162.645 35.0039H159.517V27.0791H160.389V29.9575ZM160.389 30.7046V34.2642H162.659C163.289 34.2642 163.782 34.1055 164.139 33.7881C164.5 33.4707 164.681 33.0361 164.681 32.4844C164.681 31.957 164.505 31.5322 164.154 31.21C163.807 30.8828 163.331 30.7144 162.725 30.7046H160.389ZM177.641 27.0791V35.0039H176.762V27.8335H173.517L173.378 30.7998C173.319 31.8984 173.209 32.7383 173.048 33.3193C172.887 33.8955 172.648 34.3203 172.331 34.5938C172.013 34.8672 171.591 35.0039 171.063 35.0039H170.727V34.2275L170.998 34.2129C171.5 34.2031 171.862 33.959 172.082 33.4805C172.301 33.002 172.445 32.1475 172.514 30.917L172.675 27.0791H177.641ZM179.741 30.9243C179.741 30.1626 179.887 29.4766 180.18 28.8662C180.478 28.2559 180.895 27.7822 181.433 27.4453C181.975 27.1035 182.587 26.9326 183.271 26.9326C184.326 26.9326 185.18 27.3037 185.834 28.0459C186.489 28.7832 186.816 29.7622 186.816 30.9829V31.166C186.816 31.9326 186.667 32.6235 186.369 33.2388C186.076 33.8491 185.661 34.3203 185.124 34.6523C184.587 34.9844 183.974 35.1504 183.286 35.1504C182.236 35.1504 181.381 34.7817 180.722 34.0444C180.068 33.3022 179.741 32.3208 179.741 31.1001V30.9243ZM180.62 31.166C180.62 32.1133 180.864 32.8921 181.352 33.5024C181.845 34.1079 182.49 34.4106 183.286 34.4106C184.077 34.4106 184.716 34.1079 185.204 33.5024C185.698 32.8921 185.944 32.0889 185.944 31.0928V30.9243C185.944 30.3188 185.832 29.7646 185.607 29.2617C185.383 28.7588 185.068 28.3706 184.662 28.0972C184.257 27.8188 183.793 27.6797 183.271 27.6797C182.49 27.6797 181.852 27.9873 181.359 28.6025C180.866 29.2129 180.62 30.0137 180.62 31.0049V31.166ZM193.501 29.1738C193.501 28.6953 193.323 28.3267 192.966 28.0679C192.61 27.8091 192.119 27.6797 191.494 27.6797C190.928 27.6797 190.442 27.8262 190.036 28.1191C189.636 28.4072 189.436 28.7734 189.436 29.2178H188.564C188.564 28.5586 188.845 28.0142 189.407 27.5845C189.973 27.1548 190.669 26.9399 191.494 26.9399C192.402 26.9399 193.11 27.1353 193.618 27.5259C194.126 27.9165 194.38 28.4707 194.38 29.1885C194.38 29.5693 194.262 29.9136 194.028 30.2212C193.794 30.5288 193.452 30.7681 193.003 30.939C194.018 31.2173 194.526 31.8472 194.526 32.8286C194.526 33.5415 194.25 34.1055 193.699 34.5205C193.147 34.9355 192.414 35.1431 191.501 35.1431C190.617 35.1431 189.885 34.9209 189.304 34.4766C188.723 34.0322 188.432 33.4512 188.432 32.7334H189.311C189.311 33.2119 189.521 33.6123 189.941 33.9346C190.366 34.252 190.886 34.4106 191.501 34.4106C192.17 34.4106 192.693 34.2715 193.069 33.9932C193.45 33.71 193.64 33.3267 193.64 32.8433C193.64 32.311 193.467 31.9277 193.12 31.6934C192.773 31.459 192.243 31.3418 191.531 31.3418H190.322V30.5801H191.677C192.893 30.5508 193.501 30.082 193.501 29.1738ZM199.197 33.7441L201.511 27.0791H202.456L199.072 36.3516L198.897 36.7617C198.462 37.7236 197.791 38.2046 196.883 38.2046C196.673 38.2046 196.448 38.1704 196.209 38.1021L196.201 37.377L196.655 37.4209C197.085 37.4209 197.432 37.3135 197.696 37.0986C197.964 36.8887 198.191 36.5249 198.377 36.0073L198.765 34.938L195.777 27.0791H196.736L199.197 33.7441ZM210.13 35.0039H209.251V31.3711H204.981V35.0039H204.102V27.0791H204.981V30.6313H209.251V27.0791H210.13V35.0039ZM217.643 27.8335H213.636V35.0039H212.757V27.0791H217.643V27.8335Z" fill="#0E0E0E" fill-opacity="0.61"/>
<path d="M13.5 45.5078L20 45.5078L6.5 23.5078L1.59523e-08 23.5078L13.5 45.5078Z" fill="#EFA56E"/>
<path d="M35.0156 0.492189L28.5156 0.492188L42.0156 22.4922L48.5156 22.4922L35.0156 0.492189Z" fill="#044079"/>
<path d="M21 45.5078L27.5 45.5078L14 23.5078L7.5 23.5078L21 45.5078Z" fill="#DB8241"/>
<path d="M27.5156 0.492189L21.0156 0.492188L34.5156 22.4922L41.0156 22.4922L27.5156 0.492189Z" fill="#10579A"/>
<path d="M28.5 45.5078L35 45.5078L21.5 23.5078L15 23.5078L28.5 45.5078Z" fill="#CD6F2A"/>
<path d="M20.0156 0.492189L13.5156 0.492188L27.0156 22.4922L33.5156 22.4922L20.0156 0.492189Z" fill="#246DB1"/>
<path d="M36.0389 45.5234L22.4935 23.5L35.3477 23.5L48.5156 23.5L36.0389 45.5234Z" fill="#B85915"/>
<path d="M12.4768 0.476563L26.0222 22.5L13.1679 22.5L-1.92535e-06 22.5L12.4768 0.476563Z" fill="#4B8BC7"/>
</svg>
